<svg viewBox="0 0 24 24" fill="none" xmlns="http://www.w3.org/2000/svg">
  <path d="M4.75 6.5c1.33-.8 2.82-1.2 4.45-1.2 1.62 0 3.05.43 4.3 1.3v11.15c-1.17-.8-2.6-1.2-4.3-1.2-1.63 0-3.12.4-4.45 1.2z" fill="rgba(255,255,255,0.18)" stroke="currentColor" stroke-width="1.5" stroke-linejoin="round"/>
  <path d="M19.25 6.5c-1.33-.8-2.82-1.2-4.45-1.2-1.62 0-3.05.43-4.3 1.3v11.15c1.17-.8 2.6-1.2 4.3-1.2 1.63 0 3.12.4 4.45 1.2z" fill="rgba(255,255,255,0.12)" stroke="currentColor" stroke-width="1.5" stroke-linejoin="round"/>
  <path d="M12 7.45v9.1" stroke="currentColor" stroke-width="1.15"/>
  <path d="M7.3 9.2h2.2M7.3 11.7h2.2M14.5 9.2h2.2" stroke="currentColor" stroke-width="1.5" stroke-linecap="round"/>
</svg>
