<svg xmlns="http://www.w3.org/2000/svg" viewBox="0 0 512 512" fill="currentColor"><path d="M100.6 48a11.4 11.4 0 1 0 22.8 0a11.4 11.4 0 1 0 -22.8 0M132.6 48a11.4 11.4 0 1 0 22.8 0a11.4 11.4 0 1 0 -22.8 0M164.6 48a11.4 11.4 0 1 0 22.8 0a11.4 11.4 0 1 0 -22.8 0M196.6 48a11.4 11.4 0 1 0 22.8 0a11.4 11.4 0 1 0 -22.8 0M228.6 48a11.4 11.4 0 1 0 22.8 0a11.4 11.4 0 1 0 -22.8 0M260.6 48a11.4 11.4 0 1 0 22.8 0a11.4 11.4 0 1 0 -22.8 0M292.6 48a11.4 11.4 0 1 0 22.8 0a11.4 11.4 0 1 0 -22.8 0M324.6 48a11.4 11.4 0 1 0 22.8 0a11.4 11.4 0 1 0 -22.8 0M356.6 48a11.4 11.4 0 1 0 22.8 0a11.4 11.4 0 1 0 -22.8 0M388.6 48a11.4 11.4 0 1 0 22.8 0a11.4 11.4 0 1 0 -22.8 0M68.6 80a11.4 11.4 0 1 0 22.8 0a11.4 11.4 0 1 0 -22.8 0M100.6 80a11.4 11.4 0 1 0 22.8 0a11.4 11.4 0 1 0 -22.8 0M132.6 80a11.4 11.4 0 1 0 22.8 0a11.4 11.4 0 1 0 -22.8 0M164.6 80a11.4 11.4 0 1 0 22.8 0a11.4 11.4 0 1 0 -22.8 0M196.6 80a11.4 11.4 0 1 0 22.8 0a11.4 11.4 0 1 0 -22.8 0M228.6 80a11.4 11.4 0 1 0 22.8 0a11.4 11.4 0 1 0 -22.8 0M260.6 80a11.4 11.4 0 1 0 22.8 0a11.4 11.4 0 1 0 -22.8 0M292.6 80a11.4 11.4 0 1 0 22.8 0a11.4 11.4 0 1 0 -22.8 0M324.6 80a11.4 11.4 0 1 0 22.8 0a11.4 11.4 0 1 0 -22.8 0M356.6 80a11.4 11.4 0 1 0 22.8 0a11.4 11.4 0 1 0 -22.8 0M388.6 80a11.4 11.4 0 1 0 22.8 0a11.4 11.4 0 1 0 -22.8 0M420.6 80a11.4 11.4 0 1 0 22.8 0a11.4 11.4 0 1 0 -22.8 0M36.6 112a11.4 11.4 0 1 0 22.8 0a11.4 11.4 0 1 0 -22.8 0M68.6 112a11.4 11.4 0 1 0 22.8 0a11.4 11.4 0 1 0 -22.8 0M420.6 112a11.4 11.4 0 1 0 22.8 0a11.4 11.4 0 1 0 -22.8 0M452.6 112a11.4 11.4 0 1 0 22.8 0a11.4 11.4 0 1 0 -22.8 0M36.6 144a11.4 11.4 0 1 0 22.8 0a11.4 11.4 0 1 0 -22.8 0M68.6 144a11.4 11.4 0 1 0 22.8 0a11.4 11.4 0 1 0 -22.8 0M420.6 144a11.4 11.4 0 1 0 22.8 0a11.4 11.4 0 1 0 -22.8 0M452.6 144a11.4 11.4 0 1 0 22.8 0a11.4 11.4 0 1 0 -22.8 0M36.6 176a11.4 11.4 0 1 0 22.8 0a11.4 11.4 0 1 0 -22.8 0M68.6 176a11.4 11.4 0 1 0 22.8 0a11.4 11.4 0 1 0 -22.8 0M420.6 176a11.4 11.4 0 1 0 22.8 0a11.4 11.4 0 1 0 -22.8 0M452.6 176a11.4 11.4 0 1 0 22.8 0a11.4 11.4 0 1 0 -22.8 0M36.6 208a11.4 11.4 0 1 0 22.8 0a11.4 11.4 0 1 0 -22.8 0M68.6 208a11.4 11.4 0 1 0 22.8 0a11.4 11.4 0 1 0 -22.8 0M420.6 208a11.4 11.4 0 1 0 22.8 0a11.4 11.4 0 1 0 -22.8 0M452.6 208a11.4 11.4 0 1 0 22.8 0a11.4 11.4 0 1 0 -22.8 0M36.6 240a11.4 11.4 0 1 0 22.8 0a11.4 11.4 0 1 0 -22.8 0M68.6 240a11.4 11.4 0 1 0 22.8 0a11.4 11.4 0 1 0 -22.8 0M420.6 240a11.4 11.4 0 1 0 22.8 0a11.4 11.4 0 1 0 -22.8 0M452.6 240a11.4 11.4 0 1 0 22.8 0a11.4 11.4 0 1 0 -22.8 0M36.6 272a11.4 11.4 0 1 0 22.8 0a11.4 11.4 0 1 0 -22.8 0M68.6 272a11.4 11.4 0 1 0 22.8 0a11.4 11.4 0 1 0 -22.8 0M420.6 272a11.4 11.4 0 1 0 22.8 0a11.4 11.4 0 1 0 -22.8 0M452.6 272a11.4 11.4 0 1 0 22.8 0a11.4 11.4 0 1 0 -22.8 0M68.6 304a11.4 11.4 0 1 0 22.8 0a11.4 11.4 0 1 0 -22.8 0M100.6 304a11.4 11.4 0 1 0 22.8 0a11.4 11.4 0 1 0 -22.8 0M132.6 304a11.4 11.4 0 1 0 22.8 0a11.4 11.4 0 1 0 -22.8 0M164.6 304a11.4 11.4 0 1 0 22.8 0a11.4 11.4 0 1 0 -22.8 0M196.6 304a11.4 11.4 0 1 0 22.8 0a11.4 11.4 0 1 0 -22.8 0M228.6 304a11.4 11.4 0 1 0 22.8 0a11.4 11.4 0 1 0 -22.8 0M260.6 304a11.4 11.4 0 1 0 22.8 0a11.4 11.4 0 1 0 -22.8 0M292.6 304a11.4 11.4 0 1 0 22.8 0a11.4 11.4 0 1 0 -22.8 0M324.6 304a11.4 11.4 0 1 0 22.8 0a11.4 11.4 0 1 0 -22.8 0M356.6 304a11.4 11.4 0 1 0 22.8 0a11.4 11.4 0 1 0 -22.8 0M388.6 304a11.4 11.4 0 1 0 22.8 0a11.4 11.4 0 1 0 -22.8 0M420.6 304a11.4 11.4 0 1 0 22.8 0a11.4 11.4 0 1 0 -22.8 0M100.6 336a11.4 11.4 0 1 0 22.8 0a11.4 11.4 0 1 0 -22.8 0M132.6 336a11.4 11.4 0 1 0 22.8 0a11.4 11.4 0 1 0 -22.8 0M164.6 336a11.4 11.4 0 1 0 22.8 0a11.4 11.4 0 1 0 -22.8 0M196.6 336a11.4 11.4 0 1 0 22.8 0a11.4 11.4 0 1 0 -22.8 0M228.6 336a11.4 11.4 0 1 0 22.8 0a11.4 11.4 0 1 0 -22.8 0M260.6 336a11.4 11.4 0 1 0 22.8 0a11.4 11.4 0 1 0 -22.8 0M292.6 336a11.4 11.4 0 1 0 22.8 0a11.4 11.4 0 1 0 -22.8 0M324.6 336a11.4 11.4 0 1 0 22.8 0a11.4 11.4 0 1 0 -22.8 0M356.6 336a11.4 11.4 0 1 0 22.8 0a11.4 11.4 0 1 0 -22.8 0M388.6 336a11.4 11.4 0 1 0 22.8 0a11.4 11.4 0 1 0 -22.8 0M228.6 368a11.4 11.4 0 1 0 22.8 0a11.4 11.4 0 1 0 -22.8 0M260.6 368a11.4 11.4 0 1 0 22.8 0a11.4 11.4 0 1 0 -22.8 0M228.6 400a11.4 11.4 0 1 0 22.8 0a11.4 11.4 0 1 0 -22.8 0M260.6 400a11.4 11.4 0 1 0 22.8 0a11.4 11.4 0 1 0 -22.8 0M164.6 432a11.4 11.4 0 1 0 22.8 0a11.4 11.4 0 1 0 -22.8 0M196.6 432a11.4 11.4 0 1 0 22.8 0a11.4 11.4 0 1 0 -22.8 0M228.6 432a11.4 11.4 0 1 0 22.8 0a11.4 11.4 0 1 0 -22.8 0M260.6 432a11.4 11.4 0 1 0 22.8 0a11.4 11.4 0 1 0 -22.8 0M292.6 432a11.4 11.4 0 1 0 22.8 0a11.4 11.4 0 1 0 -22.8 0M324.6 432a11.4 11.4 0 1 0 22.8 0a11.4 11.4 0 1 0 -22.8 0M164.6 464a11.4 11.4 0 1 0 22.8 0a11.4 11.4 0 1 0 -22.8 0M196.6 464a11.4 11.4 0 1 0 22.8 0a11.4 11.4 0 1 0 -22.8 0M228.6 464a11.4 11.4 0 1 0 22.8 0a11.4 11.4 0 1 0 -22.8 0M260.6 464a11.4 11.4 0 1 0 22.8 0a11.4 11.4 0 1 0 -22.8 0M292.6 464a11.4 11.4 0 1 0 22.8 0a11.4 11.4 0 1 0 -22.8 0M324.6 464a11.4 11.4 0 1 0 22.8 0a11.4 11.4 0 1 0 -22.8 0"/></svg>
