<svg xmlns="http://www.w3.org/2000/svg" viewBox="0 0 96 96" role="img" aria-label="GSV">
  <path d="M25 53.5c0-13.8 9.9-24.2 23.1-24.2 7.8 0 14.3 3.3 18.1 8.9l-8.3 5.8c-2.2-3.1-5.5-4.9-9.8-4.9-7 0-12 6-12 14.2 0 8.5 5.1 14.5 12.8 14.5 5.8 0 10-3 11.4-8h-12v-8.6h22.4v5.3c0 12.7-8.8 21.1-22 21.1-13.8 0-23.7-10.3-23.7-24.1z" fill="#1c3146" transform="translate(48 53.5) scale(0.97) translate(-48 -53.5)"/>
  <path d="M24 20h48a4 4 0 0 1 4 4v12h-7.4a25.4 25.4 0 0 0-20.5-10.1C33 25.9 21.3 37.8 21.3 53.5S33 81.1 48.7 81.1c13.9 0 24-8.5 25.8-21.3H76V81a4 4 0 0 1-4 4H24a4 4 0 0 1-4-4V24a4 4 0 0 1 4-4z" fill="none" stroke="#7c8da1" stroke-width="4" transform="translate(48 0) scale(1.04 1) translate(-48 0)"/>
  <circle cx="70.8" cy="26.2" r="3.8" fill="#3c7adf"/>
</svg>
